<svg xmlns="http://www.w3.org/2000/svg" width="2400" height="1900" viewBox="0 0 2400 1900" role="img" aria-labelledby="title desc">
  <title id="title">PacBio Variant Analysis Harness current execution model</title>
  <desc id="desc">Layered architecture diagram showing manifest and configuration, validation, stage planning, local caller execution or Slurm planned stage entry, separate DeepVariant and pbsv germline validation lineages, GLnexus downstream only of validated DeepVariant gVCFs, somatic integrated evidence downstream of validated DeepSomatic and Severus outputs, and lifecycle controls as a side rail.</desc>
  <defs>
    <marker id="arrow" viewBox="0 0 10 10" refX="9" refY="5" markerWidth="9" markerHeight="9" orient="auto-start-reverse">
      <path d="M 0 0 L 10 5 L 0 10 z" fill="#3f4a5a"/>
    </marker>
    <style>
      .title { font-family: Arial, Helvetica, sans-serif; font-size: 38px; font-weight: 700; fill: #111827; text-anchor: middle; }
      .subtitle { font-family: Arial, Helvetica, sans-serif; font-size: 20px; fill: #4b5563; text-anchor: middle; }
      .section { font-family: Arial, Helvetica, sans-serif; font-size: 22px; font-weight: 700; fill: #273244; }
      .box { rx: 14; ry: 14; stroke-width: 2.4; }
      .text { font-family: Arial, Helvetica, sans-serif; font-size: 23px; fill: #18212f; text-anchor: middle; dominant-baseline: middle; }
      .small { font-family: Arial, Helvetica, sans-serif; font-size: 19px; fill: #344054; text-anchor: middle; dominant-baseline: middle; }
      .tiny { font-family: Arial, Helvetica, sans-serif; font-size: 17px; fill: #475467; text-anchor: middle; dominant-baseline: middle; }
      .arrow { fill: none; stroke: #3f4a5a; stroke-width: 2.8; marker-end: url(#arrow); }
      .input { fill: #e8f4fd; stroke: #2f6f9f; }
      .planning { fill: #eef7ec; stroke: #3b7d3a; }
      .backend { fill: #fff4d6; stroke: #a16a00; }
      .entry { fill: #fffaf0; stroke: #b7791f; }
      .germline { fill: #f1ecff; stroke: #6a4fb3; }
      .somatic { fill: #ffecec; stroke: #b34f4f; }
      .validation { fill: #eaf7f4; stroke: #2e7d70; }
      .lifecycle { fill: #f7f7f8; stroke: #667085; }
      .lane { fill: #fbfbfd; stroke: #d9dee8; stroke-width: 1.6; }
      .germline-lane { fill: #fbf9ff; stroke: #ddd4ff; stroke-width: 1.8; }
      .somatic-lane { fill: #fffafa; stroke: #ffd3d3; stroke-width: 1.8; }
      .cohort-lane { fill: #f7f4ff; stroke: #d9cfff; stroke-width: 1.8; }
      .sv-lane { fill: #fbf9ff; stroke: #d8d0ff; stroke-width: 1.4; stroke-dasharray: 7 6; }
    </style>
  </defs>

  <rect x="0" y="0" width="2400" height="1900" fill="#ffffff"/>
  <text class="title" x="1200" y="56">PacBio Variant Analysis Harness: Current Execution Model</text>
  <text class="subtitle" x="1200" y="92">Validation and planning precede local execution or Slurm planning; DeepVariant and pbsv keep separate germline output-validation lineages.</text>

  <rect class="lane" x="70" y="128" width="2260" height="440" rx="22"/>
  <text class="section" x="105" y="165">Top layer: validation, planning, and execution backend</text>

  <rect class="box input" x="130" y="205" width="330" height="92"/>
  <text class="text" x="295" y="238">Manifest +</text>
  <text class="text" x="295" y="268">Configuration</text>

  <rect class="box input" x="560" y="205" width="390" height="92"/>
  <text class="text" x="755" y="232">Schema / Identity /</text>
  <text class="text" x="755" y="262">Reference / Preflight</text>
  <text class="text" x="755" y="292">Validation</text>

  <rect class="box planning" x="1050" y="205" width="390" height="92"/>
  <text class="text" x="1245" y="236">Stage Graph + Command /</text>
  <text class="text" x="1245" y="268">Resource Planning</text>

  <rect class="box backend" x="1540" y="205" width="390" height="92"/>
  <text class="text" x="1735" y="236">Execution Backend</text>
  <text class="small" x="1735" y="268">selected before caller stages</text>

  <rect class="box backend" x="1325" y="370" width="350" height="82"/>
  <text class="text" x="1500" y="397">Local runner</text>
  <text class="small" x="1500" y="425">to caller execution</text>

  <rect class="box backend" x="1790" y="370" width="350" height="82"/>
  <text class="text" x="1965" y="397">Slurm script / array</text>
  <text class="small" x="1965" y="425">to planned Slurm stage entry</text>

  <rect class="box entry" x="840" y="620" width="310" height="78"/>
  <text class="text" x="995" y="648">Caller execution</text>
  <text class="small" x="995" y="674">local runner path</text>

  <rect class="box entry" x="1245" y="620" width="350" height="78"/>
  <text class="text" x="1420" y="648">Planned Slurm stage entry</text>
  <text class="small" x="1420" y="674">script or array plan path</text>

  <rect class="box entry" x="1025" y="720" width="300" height="56"/>
  <text class="small" x="1175" y="748">Planned caller-family dispatch</text>

  <rect class="germline-lane" x="70" y="800" width="1320" height="950" rx="22"/>
  <text class="section" x="105" y="837">Middle layer: germline single-sample and cohort paths</text>

  <rect class="somatic-lane" x="1430" y="800" width="650" height="950" rx="22"/>
  <text class="section" x="1465" y="837">Middle layer: somatic caller path</text>

  <rect class="box germline" x="145" y="855" width="330" height="82"/>
  <text class="text" x="310" y="883">DeepVariant</text>
  <text class="small" x="310" y="911">germline SNV/indel</text>

  <rect class="box germline" x="145" y="1000" width="330" height="82"/>
  <text class="text" x="310" y="1028">Caller-native</text>
  <text class="small" x="310" y="1056">VCF/gVCF outputs</text>

  <rect class="box validation" x="115" y="1145" width="390" height="82"/>
  <text class="text" x="310" y="1173">DeepVariant VCF/gVCF</text>
  <text class="small" x="310" y="1201">output validation + SNV QC</text>

  <rect class="cohort-lane" x="115" y="1280" width="1195" height="405" rx="18"/>
  <text class="section" x="145" y="1313">Germline cohort branch: DeepVariant gVCF lineage only</text>

  <rect class="box germline" x="150" y="1350" width="260" height="72"/>
  <text class="small" x="280" y="1374">Validated per-sample</text>
  <text class="small" x="280" y="1398">DeepVariant gVCFs</text>

  <rect class="box germline" x="455" y="1350" width="250" height="72"/>
  <text class="small" x="580" y="1374">Joint input manifest</text>
  <text class="small" x="580" y="1398">validation</text>

  <rect class="box germline" x="750" y="1350" width="270" height="72"/>
  <text class="small" x="885" y="1374">Sample/reference</text>
  <text class="small" x="885" y="1398">compatibility checks</text>

  <rect class="box germline" x="1065" y="1350" width="200" height="72"/>
  <text class="text" x="1165" y="1386">Sharding</text>

  <rect class="box germline" x="150" y="1500" width="260" height="72"/>
  <text class="small" x="280" y="1524">GLnexus command</text>
  <text class="small" x="280" y="1548">planning</text>

  <rect class="box germline" x="455" y="1500" width="250" height="72"/>
  <text class="small" x="580" y="1524">Slurm shard-array</text>
  <text class="small" x="580" y="1548">planning</text>

  <rect class="box germline" x="750" y="1500" width="330" height="72"/>
  <text class="small" x="915" y="1524">Concat + joint QC/report/</text>
  <text class="small" x="915" y="1548">rerun planning</text>

  <rect class="sv-lane" x="560" y="835" width="750" height="390" rx="18"/>
  <text class="section" x="590" y="870">Germline SV branch: pbsv lineage</text>

  <rect class="box germline" x="605" y="910" width="300" height="72"/>
  <text class="text" x="755" y="934">pbsv discover + call</text>
  <text class="small" x="755" y="958">germline SV</text>

  <rect class="box germline" x="955" y="910" width="300" height="72"/>
  <text class="small" x="1105" y="934">Caller-native svsig</text>
  <text class="small" x="1105" y="958">and SV VCF</text>

  <rect class="box validation" x="605" y="1070" width="300" height="72"/>
  <text class="small" x="755" y="1094">pbsv output validation</text>
  <text class="small" x="755" y="1118">+ SV QC</text>

  <rect class="box germline" x="955" y="1070" width="300" height="72"/>
  <text class="small" x="1105" y="1094">Germline sample reporting /</text>
  <text class="small" x="1105" y="1118">validated germline SV outputs</text>

  <rect class="box somatic" x="1500" y="855" width="250" height="82"/>
  <text class="text" x="1625" y="883">DeepSomatic</text>
  <text class="small" x="1625" y="911">somatic SNV/indel</text>

  <rect class="box somatic" x="1785" y="855" width="230" height="82"/>
  <text class="text" x="1900" y="883">Severus</text>
  <text class="small" x="1900" y="911">somatic SV</text>

  <rect class="box somatic" x="1500" y="1000" width="250" height="82"/>
  <text class="text" x="1625" y="1028">Caller-native</text>
  <text class="small" x="1625" y="1056">VCF/gVCF outputs</text>

  <rect class="box somatic" x="1785" y="1000" width="230" height="82"/>
  <text class="text" x="1900" y="1028">Caller-native SV/BND</text>
  <text class="small" x="1900" y="1056">native outputs</text>

  <rect class="box validation" x="1600" y="1145" width="320" height="82"/>
  <text class="text" x="1760" y="1173">Caller-specific</text>
  <text class="small" x="1760" y="1201">validation + QC</text>

  <rect class="box somatic" x="1500" y="1350" width="270" height="82"/>
  <text class="small" x="1635" y="1378">Validated DeepSomatic</text>
  <text class="small" x="1635" y="1402">and Severus outputs</text>

  <rect class="box somatic" x="1800" y="1350" width="250" height="82"/>
  <text class="text" x="1925" y="1378">Integrated somatic</text>
  <text class="small" x="1925" y="1402">evidence reporting</text>

  <rect class="lane" x="2110" y="760" width="220" height="990" rx="22"/>
  <text class="section" x="2140" y="797">Lifecycle</text>
  <text class="section" x="2140" y="824">controls</text>

  <rect class="box lifecycle" x="2135" y="870" width="170" height="54"/>
  <text class="small" x="2220" y="897">Status and logs</text>

  <rect class="box lifecycle" x="2135" y="950" width="170" height="54"/>
  <text class="small" x="2220" y="977">Resolved config</text>

  <rect class="box lifecycle" x="2135" y="1030" width="170" height="54"/>
  <text class="small" x="2220" y="1057">Provenance</text>

  <rect class="box lifecycle" x="2135" y="1110" width="170" height="54"/>
  <text class="small" x="2220" y="1128">Attempt</text>
  <text class="small" x="2220" y="1150">preservation</text>

  <rect class="box lifecycle" x="2135" y="1190" width="170" height="54"/>
  <text class="small" x="2220" y="1217">Resume</text>

  <rect class="box lifecycle" x="2135" y="1270" width="170" height="54"/>
  <text class="small" x="2220" y="1297">Rerun manifests</text>

  <rect class="box lifecycle" x="2135" y="1350" width="170" height="54"/>
  <text class="small" x="2220" y="1377">Failure isolation</text>

  <text class="tiny" x="2220" y="1485">Supporting controls</text>
  <text class="tiny" x="2220" y="1509">around stages and</text>
  <text class="tiny" x="2220" y="1533">attempts.</text>

  <path class="arrow" d="M 460 251 L 560 251"/>
  <path class="arrow" d="M 950 251 L 1050 251"/>
  <path class="arrow" d="M 1440 251 L 1540 251"/>
  <path class="arrow" d="M 1690 297 L 1530 370"/>
  <path class="arrow" d="M 1785 297 L 1940 370"/>
  <path class="arrow" d="M 1500 452 L 1080 620"/>
  <path class="arrow" d="M 1965 452 L 1500 620"/>

  <path class="arrow" d="M 995 698 L 1095 720"/>
  <path class="arrow" d="M 1420 698 L 1255 720"/>
  <path class="arrow" d="M 1175 776 L 1175 790 L 100 790 L 100 896 L 145 896"/>
  <path class="arrow" d="M 1175 790 L 1010 790 L 1010 890 L 755 890 L 755 910"/>
  <path class="arrow" d="M 1175 790 L 1450 790 L 1450 896 L 1500 896"/>
  <path class="arrow" d="M 1175 790 L 2050 790 L 2050 896 L 2015 896"/>

  <path class="arrow" d="M 310 937 L 310 1000"/>
  <path class="arrow" d="M 310 1082 L 310 1145"/>
  <path class="arrow" d="M 310 1227 L 280 1350"/>
  <path class="arrow" d="M 410 1386 L 455 1386"/>
  <path class="arrow" d="M 705 1386 L 750 1386"/>
  <path class="arrow" d="M 1020 1386 L 1065 1386"/>
  <path class="arrow" d="M 1165 1422 L 1165 1460 L 280 1460 L 280 1500"/>
  <path class="arrow" d="M 410 1536 L 455 1536"/>
  <path class="arrow" d="M 705 1536 L 750 1536"/>

  <path class="arrow" d="M 905 946 L 955 946"/>
  <path class="arrow" d="M 1105 982 L 1105 1035 L 755 1035 L 755 1070"/>
  <path class="arrow" d="M 905 1106 L 955 1106"/>

  <path class="arrow" d="M 1625 937 L 1625 1000"/>
  <path class="arrow" d="M 1900 937 L 1900 1000"/>
  <path class="arrow" d="M 1625 1082 L 1725 1145"/>
  <path class="arrow" d="M 1900 1082 L 1800 1145"/>
  <path class="arrow" d="M 1760 1227 L 1635 1350"/>
  <path class="arrow" d="M 1770 1391 L 1800 1391"/>

  <text class="tiny" x="610" y="1810">Only validated DeepVariant gVCFs feed joint input validation and GLnexus planning; pbsv remains a separate germline SV/reporting lineage.</text>
  <text class="tiny" x="1755" y="1810">Integrated somatic evidence remains downstream of validated DeepSomatic and Severus outputs.</text>
</svg>
